<svg width="214" height="222" viewBox="0 0 214 222" fill="none" xmlns="http://www.w3.org/2000/svg">
<path d="M105.412 196.633C100.027 196.633 95.6465 192.272 95.6465 186.912C95.6465 181.552 100.027 177.191 105.412 177.191C110.796 177.191 115.177 181.552 115.177 186.912C115.177 192.272 110.796 196.633 105.412 196.633ZM105.412 180.717C101.979 180.717 99.1838 183.495 99.1838 186.916C99.1838 190.337 101.975 193.115 105.412 193.115C108.848 193.115 111.639 190.337 111.639 186.916C111.639 183.495 108.844 180.717 105.412 180.717Z" fill="#BF9000"/>
<path d="M132.847 189.801C127.462 189.801 123.082 185.44 123.082 180.08C123.082 174.72 127.462 170.359 132.847 170.359C138.232 170.359 142.612 174.72 142.612 180.08C142.612 185.44 138.232 189.801 132.847 189.801ZM132.847 173.885C129.415 173.885 126.619 176.663 126.619 180.084C126.619 183.505 129.411 186.283 132.847 186.283C136.284 186.283 139.075 183.505 139.075 180.084C139.075 176.663 136.284 173.885 132.847 173.885Z" fill="#BF9000"/>
<path d="M78.226 189.801C72.8413 189.801 68.4609 185.44 68.4609 180.08C68.4609 174.72 72.8413 170.359 78.226 170.359C83.6107 170.359 87.991 174.72 87.991 180.08C87.991 185.44 83.6107 189.801 78.226 189.801ZM78.226 173.885C74.7935 173.885 71.9983 176.663 71.9983 180.084C71.9983 183.505 74.7895 186.283 78.226 186.283C81.6625 186.283 84.4537 183.505 84.4537 180.084C84.4537 176.663 81.6625 173.885 78.226 173.885Z" fill="#BF9000"/>
<path d="M148.716 121.778C157.082 122.187 165.213 123.914 172.889 126.857C172.441 129.146 171.884 131.394 171.211 133.59C151.164 125.692 128.081 127.054 108.966 138.063V148.868H136.083V172.69H129.238V155.686H108.966V180.776H102.117V155.686H81.8452V171.148H75.0004V148.868H102.117V131.278C95.196 134.229 87.8389 135.73 80.4294 135.73C75.0447 135.73 69.6399 134.943 64.3359 133.349C54.7201 130.462 46.2538 125.158 39.6308 117.987C39.405 117.755 39.1831 117.514 38.9734 117.277C38.9169 116.173 38.8887 115.056 38.8887 113.932C38.8887 112.029 38.9653 110.142 39.1226 108.275C39.2638 108.259 39.3969 108.255 39.5421 108.255C39.9091 108.255 40.2722 108.299 40.619 108.375C41.8008 110.053 43.0754 111.631 44.4347 113.109C50.4728 119.694 58.1404 124.371 66.4696 126.853C57.9267 117.225 55.2807 103.135 60.8872 90.6684L67.1351 93.4589C63.4888 101.553 64.2108 110.511 68.2806 117.706C69.0954 117.136 69.7609 116.369 70.2207 115.458C70.9548 114 71.0758 112.346 70.5676 110.796L77.0655 108.656C78.1545 111.933 77.9004 115.434 76.3435 118.517C75.3956 120.396 74.0283 121.982 72.3746 123.179C74.6172 125.496 77.3156 127.447 80.4133 128.885C86.3223 128.893 92.2959 127.821 98.0315 125.588C94.3368 122.432 90.2187 119.862 85.7455 117.943L88.448 111.68C93.4172 113.808 97.9952 116.63 102.121 120.091V100.939C101.222 100.257 100.31 99.594 99.3827 98.9436C93.2034 101.252 86.7095 102.425 80.0503 102.425V95.611C84.0757 95.611 88.0325 95.1171 91.8764 94.1535C83.2004 89.1747 73.875 85.6213 64.11 83.5816C58.9391 91.4834 50.2671 96.1129 41.2039 96.4502C41.8533 94.0411 42.6277 91.6882 43.5312 89.3915C48.4762 88.6166 53.1107 86.1513 56.5109 82.3048C53.4455 81.9193 50.3397 81.6704 47.2138 81.574C48.4722 79.2854 49.8678 77.0811 51.3763 74.9611C59.6328 75.5312 67.6796 77.053 75.4077 79.5062C74.5083 72.0541 70.1158 65.5215 63.7833 61.7753C65.6669 60.2456 67.6312 58.8162 69.6762 57.4912C73.3991 60.1894 76.4847 63.6906 78.6789 67.7137C84.7936 63.55 88.3794 56.4994 88.1414 49.1397C90.3558 48.5213 92.6145 48.0114 94.9056 47.6179C95.7486 58.2541 90.4607 68.573 81.2966 74.138C82.0025 76.6675 82.4018 79.3095 82.43 82.0197C89.3152 84.7741 95.9099 88.2874 102.13 92.5434V46.7587C103.586 46.6663 105.054 46.6182 106.522 46.6182C107.345 46.6182 108.164 46.6342 108.978 46.6663V79.181C114.924 69.6209 118.969 59.1695 120.986 48.16C123.245 48.6538 125.451 49.2521 127.617 49.9548C127.149 52.4361 126.584 54.8854 125.927 57.3105C127.613 56.9291 129.19 56.1541 130.553 55.0299C131.594 54.1707 132.449 53.1508 133.103 52.0145C135.212 52.9179 137.265 53.9177 139.258 55.0219C138.181 57.0013 136.725 58.7841 134.934 60.2697C131.735 62.9197 127.803 64.3491 123.697 64.3972C120.28 73.9212 115.347 82.9111 108.978 91.114V107.913C114.23 105.637 119.191 102.786 123.801 99.3892C121.712 93.5231 120.651 87.3799 120.651 81.0882H127.496C127.496 85.7659 128.17 90.3512 129.485 94.7678C139.266 86.0349 146.498 75.0494 150.676 62.9438C152.572 64.5699 154.371 66.2964 156.069 68.1233C153.113 75.732 149.027 82.895 143.932 89.3554C145.957 89.6003 148.002 89.6565 150.055 89.516L150.531 96.3136C149.632 96.3779 148.728 96.406 147.837 96.406C144.767 96.406 141.722 96.0486 138.729 95.334C136.834 97.3134 134.837 99.2166 132.727 101.019C125.629 107.098 117.646 111.896 108.978 115.289V130.286C111.822 128.828 114.746 127.551 117.731 126.459C118.566 122.545 120.675 119.047 123.809 116.45C127.504 113.394 132.175 111.957 136.942 112.39L136.321 119.176C133.357 118.907 130.469 119.794 128.19 121.689C127.399 122.336 126.718 123.083 126.153 123.902C129.4 123.107 132.699 122.529 136.039 122.155C144.537 117.176 151.874 110.68 157.779 103.127C153.528 93.4709 154.488 82.1201 160.454 73.3028C161.974 75.3024 163.39 77.3943 164.685 79.5665C162.047 84.6938 161.337 90.6121 162.632 96.1771C163.503 94.7678 164.322 93.3304 165.1 91.8729C165.983 90.2187 166.806 88.5323 167.565 86.8218C167.798 86.6893 168.045 86.5809 168.299 86.4966C169.489 89.1586 170.521 91.9291 171.368 94.7678C171.17 95.1412 170.973 95.5146 170.767 95.88C170.336 96.675 169.888 97.47 169.428 98.253C167.431 101.626 165.205 104.838 162.769 107.881C166.512 107.789 170.198 106.958 173.619 105.464C173.917 107.801 174.087 110.182 174.135 112.591C170.263 113.98 166.169 114.703 162.035 114.703C160.365 114.703 158.695 114.583 157.033 114.35C154.428 117 151.657 119.477 148.724 121.766L148.716 121.778Z" fill="#BF9000"/>
<path d="M105.459 48.7662C108.402 48.7662 110.787 46.3915 110.787 43.4622C110.787 40.5329 108.402 38.1582 105.459 38.1582C102.516 38.1582 100.131 40.5329 100.131 43.4622C100.131 46.3915 102.516 48.7662 105.459 48.7662Z" fill="#BF9000"/>
<path d="M90.6739 51.1207C93.6166 51.1207 96.0021 48.746 96.0021 45.8167C96.0021 42.8874 93.6166 40.5127 90.6739 40.5127C87.7312 40.5127 85.3457 42.8874 85.3457 45.8167C85.3457 48.746 87.7312 51.1207 90.6739 51.1207Z" fill="#BF9000"/>
<path d="M64.8712 63.4176C67.8139 63.4176 70.1994 61.0429 70.1994 58.1136C70.1994 55.1843 67.8139 52.8096 64.8712 52.8096C61.9285 52.8096 59.543 55.1843 59.543 58.1136C59.543 61.0429 61.9285 63.4176 64.8712 63.4176Z" fill="#BF9000"/>
<path d="M47.5118 83.0367C50.4545 83.0367 52.84 80.662 52.84 77.7327C52.84 74.8034 50.4545 72.4287 47.5118 72.4287C44.5691 72.4287 42.1836 74.8034 42.1836 77.7327C42.1836 80.662 44.5691 83.0367 47.5118 83.0367Z" fill="#BF9000"/>
<path d="M40.9415 97.8238C43.8842 97.8238 46.2697 95.4492 46.2697 92.5198C46.2697 89.5905 43.8842 87.2158 40.9415 87.2158C37.9988 87.2158 35.6133 89.5905 35.6133 92.5198C35.6133 95.4492 37.9988 97.8238 40.9415 97.8238Z" fill="#BF9000"/>
<path d="M44.8654 113.106V113.122C44.8654 116.021 42.5381 118.374 39.6421 118.422C39.6098 118.43 39.5735 118.43 39.5412 118.43C36.5968 118.43 34.209 116.053 34.209 113.122C34.209 110.348 36.3588 108.067 39.0855 107.846C39.2387 107.83 39.3839 107.822 39.5412 107.822C39.9406 107.822 40.3358 107.866 40.7109 107.951C43.0826 108.481 44.8574 110.581 44.8654 113.106Z" fill="#BF9000"/>
<path d="M125.191 51.6315C128.134 51.6315 130.52 49.2568 130.52 46.3274C130.52 43.3981 128.134 41.0234 125.191 41.0234C122.249 41.0234 119.863 43.3981 119.863 46.3274C119.863 49.2568 122.249 51.6315 125.191 51.6315Z" fill="#BF9000"/>
<path d="M137.555 56.5182C140.497 56.5182 142.883 54.1435 142.883 51.2142C142.883 48.2848 140.497 45.9102 137.555 45.9102C134.612 45.9102 132.227 48.2848 132.227 51.2142C132.227 54.1435 134.612 56.5182 137.555 56.5182Z" fill="#BF9000"/>
<path d="M154.318 69.6442C157.261 69.6442 159.647 67.2695 159.647 64.3401C159.647 61.4108 157.261 59.0361 154.318 59.0361C151.376 59.0361 148.99 61.4108 148.99 64.3401C148.99 67.2695 151.376 69.6442 154.318 69.6442Z" fill="#BF9000"/>
<path d="M164.373 80.3248C167.316 80.3248 169.701 77.9501 169.701 75.0208C169.701 72.0915 167.316 69.7168 164.373 69.7168C161.43 69.7168 159.045 72.0915 159.045 75.0208C159.045 77.9501 161.43 80.3248 164.373 80.3248Z" fill="#BF9000"/>
<path d="M176.418 113.622C179.361 113.622 181.746 111.247 181.746 108.318C181.746 105.388 179.361 103.014 176.418 103.014C173.475 103.014 171.09 105.388 171.09 108.318C171.09 111.247 173.475 113.622 176.418 113.622Z" fill="#BF9000"/>
<path d="M174.006 136.534C176.949 136.534 179.334 134.159 179.334 131.23C179.334 128.3 176.949 125.926 174.006 125.926C171.063 125.926 168.678 128.3 168.678 131.23C168.678 134.159 171.063 136.534 174.006 136.534Z" fill="#BF9000"/>
<path d="M85.2696 119.184C87.9717 119.184 90.1622 117.004 90.1622 114.314C90.1622 111.624 87.9717 109.443 85.2696 109.443C82.5674 109.443 80.377 111.624 80.377 114.314C80.377 117.004 82.5674 119.184 85.2696 119.184Z" fill="#BF9000"/>
<path d="M124.434 84.3697C127.136 84.3697 129.326 82.1891 129.326 79.4993C129.326 76.8094 127.136 74.6289 124.434 74.6289C121.732 74.6289 119.541 76.8094 119.541 79.4993C119.541 82.1891 121.732 84.3697 124.434 84.3697Z" fill="#BF9000"/>
<path d="M175.24 91.0852C175.24 93.699 173.337 95.8712 170.832 96.3089C170.533 96.3611 170.223 96.3932 169.908 96.3932C167.266 96.3932 165.068 94.4699 164.661 91.9444C164.608 91.6673 164.584 91.3783 164.584 91.0852C164.584 89.0816 165.701 87.343 167.343 86.4436C167.597 86.2991 167.867 86.1827 168.146 86.0903C168.694 85.8895 169.295 85.7852 169.908 85.7852C172.853 85.7852 175.24 88.1541 175.24 91.0852Z" fill="#BF9000"/>
<path d="M107.37 22.3804C101.171 22.3804 96.1289 17.3615 96.1289 11.1902C96.1289 5.01893 101.171 0 107.37 0C113.57 0 118.611 5.01893 118.611 11.1902C118.611 17.3615 113.57 22.3804 107.37 22.3804ZM107.37 6.48848C104.765 6.48848 102.647 8.59643 102.647 11.1902C102.647 13.784 104.765 15.892 107.37 15.892C109.976 15.892 112.093 13.784 112.093 11.1902C112.093 8.59643 109.976 6.48848 107.37 6.48848Z" fill="#BF9000"/>
<path d="M197.321 177.753C191.122 177.753 186.08 172.735 186.08 166.563C186.08 160.392 191.122 155.373 197.321 155.373C203.521 155.373 208.563 160.392 208.563 166.563C208.563 172.735 203.521 177.753 197.321 177.753ZM197.321 161.862C194.716 161.862 192.598 163.969 192.598 166.563C192.598 169.157 194.716 171.265 197.321 171.265C199.927 171.265 202.045 169.157 202.045 166.563C202.045 163.969 199.927 161.862 197.321 161.862Z" fill="#BF9000"/>
<path d="M17.0948 177.753C10.8954 177.753 5.85352 172.735 5.85352 166.563C5.85352 160.392 10.8954 155.373 17.0948 155.373C23.2943 155.373 28.3361 160.392 28.3361 166.563C28.3361 172.735 23.2943 177.753 17.0948 177.753ZM17.0948 161.862C14.4892 161.862 12.3716 163.969 12.3716 166.563C12.3716 169.157 14.4892 171.265 17.0948 171.265C19.7004 171.265 21.818 169.157 21.818 166.563C21.818 163.969 19.7004 161.862 17.0948 161.862Z" fill="#BF9000"/>
<path d="M3.45674 120.354C1.61344 120.45 0.0645908 119.001 0.024256 117.162C-0.552531 89.8868 9.17218 63.8326 27.6052 43.4757C46.7964 22.2878 73.1269 9.80472 101.748 8.32715L102.087 14.8076C75.2042 16.1928 50.4709 27.9211 32.4453 47.8242C15.1256 66.9483 5.98976 91.4327 6.54235 117.061C6.57865 118.808 5.20727 120.261 3.45674 120.35V120.354Z" fill="#BF9000"/>
<path d="M107.375 221.821C72.2155 221.821 37.7374 204.68 17.207 173.197L22.6724 169.664C52.3588 215.188 113.119 228.795 159.423 200.846C160.92 199.942 162.868 200.4 163.824 201.862C164.828 203.403 164.344 205.467 162.767 206.419C145.496 216.834 126.333 221.821 107.375 221.821Z" fill="#BF9000"/>
<path d="M203.275 161.658L197.407 158.839C209.108 134.708 210.669 107.481 201.803 82.1778C193.28 57.862 176.106 38.1195 153.264 26.2789C151.707 25.4718 151.086 23.5767 151.849 22.0068C152.651 20.3525 154.672 19.694 156.31 20.5452C180.615 33.1528 198.887 54.1641 207.954 80.0417C217.397 106.979 215.735 135.965 203.275 161.658Z" fill="#BF9000"/>
<path d="M135.964 19.7097C138.379 19.7097 140.336 17.7611 140.336 15.3573C140.336 12.9535 138.379 11.0049 135.964 11.0049C133.549 11.0049 131.592 12.9535 131.592 15.3573C131.592 17.7611 133.549 19.7097 135.964 19.7097Z" fill="#BF9000"/>
<path d="M5.99338 146.208C8.40813 146.208 10.3657 144.259 10.3657 141.855C10.3657 139.452 8.40813 137.503 5.99338 137.503C3.57863 137.503 1.62109 139.452 1.62109 141.855C1.62109 144.259 3.57863 146.208 5.99338 146.208Z" fill="#BF9000"/>
<path d="M179.773 193.056C182.187 193.056 184.145 191.108 184.145 188.704C184.145 186.3 182.187 184.352 179.773 184.352C177.358 184.352 175.4 186.3 175.4 188.704C175.4 191.108 177.358 193.056 179.773 193.056Z" fill="#BF9000"/>
</svg>
